dataset
version=1
nRows=30
nColumns=39
inDegrees=no
endheader
time	sternoclavicular_r2	sternoclavicular_r3	unrotscap_r3	unrotscap_r2	acromioclavicular_r2	acromioclavicular_r3	acromioclavicular_r1	unrothum_r1	unrothum_r3	unrothum_r2	elv_angle	shoulder_elv	shoulder1_r2	shoulder_rot	elbow_flexion	pro_sup	deviation	flexion	cmc_abduction	cmc_flexion	mp_flexion	ip_flexion	mcp2_flexion	mcp2_abduction	pm2_flexion	md2_flexion	mcp3_flexion	mcp3_abduction	pm3_flexion	md3_flexion	mcp4_flexion	mcp4_abduction	pm4_flexion	md4_flexion	mcp5_flexion	mcp5_abduction	pm5_flexion	md5_flexion
0.000000	-0.043394	-0.463195	0.329316	0.108560	0.067168	0.209372	-0.257805	0.012268	-0.125996	0.109096	0.053702	0.027437	0.146525	0.146525	1.391496	0.986116	0.000000	0.000000	0.000000	0.000000	0.000000	0.000000	0.000000	0.000000	0.000000	0.000000	0.000000	0.000000	0.000000	0.000000	0.000000	0.000000	0.000000	0.000000	0.000000	0.000000	0.000000	0.000000
0.005000	-0.043453	-0.463437	0.329917	0.108700	0.067224	0.209810	-0.258226	0.013015	-0.126730	0.109029	0.053562	0.027437	0.146525	0.146525	1.392045	0.995843	0.000000	0.000000	0.000000	0.000000	0.000000	0.000000	0.000000	0.000000	0.000000	0.000000	0.000000	0.000000	0.000000	0.000000	0.000000	0.000000	0.000000	0.000000	0.000000	0.000000	0.000000	0.000000
0.010000	-0.043497	-0.463636	0.330373	0.108796	0.067255	0.210146	-0.258543	0.013566	-0.127275	0.108966	0.053446	0.027437	0.146525	0.146525	1.392587	1.005265	0.000000	0.000000	0.000000	0.000000	0.000000	0.000000	0.000000	0.000000	0.000000	0.000000	0.000000	0.000000	0.000000	0.000000	0.000000	0.000000	0.000000	0.000000	0.000000	0.000000	0.000000	0.000000
0.015000	-0.043531	-0.463805	0.330729	0.108864	0.067271	0.210411	-0.258789	0.013984	-0.127689	0.108908	0.053347	0.027437	0.146525	0.146525	1.393119	1.014391	0.000000	0.000000	0.000000	0.000000	0.000000	0.000000	0.000000	0.000000	0.000000	0.000000	0.000000	0.000000	0.000000	0.000000	0.000000	0.000000	0.000000	0.000000	0.000000	0.000000	0.000000	0.000000
0.020000	-0.043558	-0.463954	0.331014	0.108912	0.067276	0.210629	-0.258984	0.014310	-0.128013	0.108853	0.053262	0.027437	0.146525	0.146525	1.393641	1.023231	0.000000	0.000000	0.000000	0.000000	0.000000	0.000000	0.000000	0.000000	0.000000	0.000000	0.000000	0.000000	0.000000	0.000000	0.000000	0.000000	0.000000	0.000000	0.000000	0.000000	0.000000	0.000000
0.025000	-0.043579	-0.464088	0.331251	0.108947	0.067275	0.210814	-0.259144	0.014574	-0.128274	0.108801	0.053186	0.027437	0.146525	0.146525	1.394154	1.031791	0.000000	0.000000	0.000000	0.000000	0.000000	0.000000	0.000000	0.000000	0.000000	0.000000	0.000000	0.000000	0.000000	0.000000	0.000000	0.000000	0.000000	0.000000	0.000000	0.000000	0.000000	0.000000
0.030000	-0.043597	-0.464209	0.331453	0.108973	0.067270	0.210975	-0.259278	0.014795	-0.128489	0.108752	0.053118	0.027437	0.146525	0.146525	1.394657	1.040081	0.000000	0.000000	0.000000	0.000000	0.000000	0.000000	0.000000	0.000000	0.000000	0.000000	0.000000	0.000000	0.000000	0.000000	0.000000	0.000000	0.000000	0.000000	0.000000	0.000000	0.000000	0.000000
0.035000	-0.043612	-0.464322	0.331630	0.108994	0.067263	0.211119	-0.259392	0.014985	-0.128673	0.108704	0.053056	0.027437	0.146525	0.146525	1.395150	1.048107	0.000000	0.000000	0.000000	0.000000	0.000000	0.000000	0.000000	0.000000	0.000000	0.000000	0.000000	0.000000	0.000000	0.000000	0.000000	0.000000	0.000000	0.000000	0.000000	0.000000	0.000000	0.000000
0.040000	-0.043625	-0.464427	0.331787	0.109011	0.067254	0.211252	-0.259492	0.015154	-0.128831	0.108659	0.052999	0.027437	0.146525	0.146525	1.395634	1.055879	0.000000	0.000000	0.000000	0.000000	0.000000	0.000000	0.000000	0.000000	0.000000	0.000000	0.000000	0.000000	0.000000	0.000000	0.000000	0.000000	0.000000	0.000000	0.000000	0.000000	0.000000	0.000000
0.045000	-0.043637	-0.464526	0.331929	0.109026	0.067244	0.211375	-0.259580	0.015308	-0.128971	0.108616	0.052946	0.027437	0.146525	0.146525	1.396107	1.063403	0.000000	0.000000	0.000000	0.000000	0.000000	0.000000	0.000000	0.000000	0.000000	0.000000	0.000000	0.000000	0.000000	0.000000	0.000000	0.000000	0.000000	0.000000	0.000000	0.000000	0.000000	0.000000
0.050000	-0.043647	-0.464619	0.332058	0.109040	0.067235	0.211491	-0.259658	0.015450	-0.129097	0.108574	0.052897	0.027437	0.146525	0.146525	1.396571	1.070688	0.000000	0.000000	0.000000	0.000000	0.000000	0.000000	0.000000	0.000000	0.000000	0.000000	0.000000	0.000000	0.000000	0.000000	0.000000	0.000000	0.000000	0.000000	0.000000	0.000000	0.000000	0.000000
0.055000	-0.043655	-0.464706	0.332176	0.109052	0.067225	0.211600	-0.259727	0.015582	-0.129209	0.108534	0.052852	0.027437	0.146525	0.146525	1.397025	1.077739	0.000000	0.000000	0.000000	0.000000	0.000000	0.000000	0.000000	0.000000	0.000000	0.000000	0.000000	0.000000	0.000000	0.000000	0.000000	0.000000	0.000000	0.000000	0.000000	0.000000	0.000000	0.000000
0.060000	-0.043663	-0.464788	0.332285	0.109063	0.067216	0.211705	-0.259788	0.015708	-0.129311	0.108495	0.052810	0.027437	0.146525	0.146525	1.397470	1.084565	0.000000	0.000000	0.000000	0.000000	0.000000	0.000000	0.000000	0.000000	0.000000	0.000000	0.000000	0.000000	0.000000	0.000000	0.000000	0.000000	0.000000	0.000000	0.000000	0.000000	0.000000	0.000000
0.065000	-0.043669	-0.464865	0.332384	0.109073	0.067206	0.211804	-0.259841	0.015827	-0.129403	0.108458	0.052771	0.027437	0.146525	0.146525	1.397905	1.091171	0.000000	0.000000	0.000000	0.000000	0.000000	0.000000	0.000000	0.000000	0.000000	0.000000	0.000000	0.000000	0.000000	0.000000	0.000000	0.000000	0.000000	0.000000	0.000000	0.000000	0.000000	0.000000
0.070000	-0.043674	-0.464935	0.332474	0.109083	0.067197	0.211898	-0.259887	0.015940	-0.129486	0.108422	0.052735	0.027437	0.146525	0.146525	1.398331	1.097566	0.000000	0.000000	0.000000	0.000000	0.000000	0.000000	0.000000	0.000000	0.000000	0.000000	0.000000	0.000000	0.000000	0.000000	0.000000	0.000000	0.000000	0.000000	0.000000	0.000000	0.000000	0.000000
0.075000	-0.043678	-0.465000	0.332555	0.109092	0.067188	0.211988	-0.259924	0.016047	-0.129560	0.108388	0.052702	0.027437	0.146525	0.146525	1.398747	1.103755	0.000000	0.000000	0.000000	0.000000	0.000000	0.000000	0.000000	0.000000	0.000000	0.000000	0.000000	0.000000	0.000000	0.000000	0.000000	0.000000	0.000000	0.000000	0.000000	0.000000	0.000000	0.000000
0.080000	-0.043681	-0.465060	0.332627	0.109100	0.067179	0.212072	-0.259955	0.016150	-0.129625	0.108354	0.052671	0.027437	0.146525	0.146525	1.399154	1.109745	0.000000	0.000000	0.000000	0.000000	0.000000	0.000000	0.000000	0.000000	0.000000	0.000000	0.000000	0.000000	0.000000	0.000000	0.000000	0.000000	0.000000	0.000000	0.000000	0.000000	0.000000	0.000000
0.085000	-0.043683	-0.465113	0.332689	0.109106	0.067170	0.212152	-0.259977	0.016246	-0.129681	0.108322	0.052643	0.027437	0.146525	0.146525	1.399551	1.115541	0.000000	0.000000	0.000000	0.000000	0.000000	0.000000	0.000000	0.000000	0.000000	0.000000	0.000000	0.000000	0.000000	0.000000	0.000000	0.000000	0.000000	0.000000	0.000000	0.000000	0.000000	0.000000
0.090000	-0.043683	-0.465160	0.332742	0.109112	0.067161	0.212226	-0.259992	0.016337	-0.129729	0.108291	0.052618	0.027437	0.146525	0.146525	1.399939	1.121151	0.000000	0.000000	0.000000	0.000000	0.000000	0.000000	0.000000	0.000000	0.000000	0.000000	0.000000	0.000000	0.000000	0.000000	0.000000	0.000000	0.000000	0.000000	0.000000	0.000000	0.000000	0.000000
0.095000	-0.043682	-0.465200	0.332785	0.109116	0.067151	0.212294	-0.259999	0.016422	-0.129768	0.108261	0.052595	0.027437	0.146525	0.146525	1.400317	1.126579	0.000000	0.000000	0.000000	0.000000	0.000000	0.000000	0.000000	0.000000	0.000000	0.000000	0.000000	0.000000	0.000000	0.000000	0.000000	0.000000	0.000000	0.000000	0.000000	0.000000	0.000000	0.000000
0.100000	-0.043679	-0.465234	0.332818	0.109119	0.067141	0.212357	-0.259998	0.016502	-0.129798	0.108233	0.052575	0.027437	0.146525	0.146525	1.400686	1.131832	0.000000	0.000000	0.000000	0.000000	0.000000	0.000000	0.000000	0.000000	0.000000	0.000000	0.000000	0.000000	0.000000	0.000000	0.000000	0.000000	0.000000	0.000000	0.000000	0.000000	0.000000	0.000000
0.105000	-0.043675	-0.465261	0.332841	0.109120	0.067131	0.212413	-0.259988	0.016574	-0.129820	0.108205	0.052557	0.027437	0.146525	0.146525	1.401045	1.136914	0.000000	0.000000	0.000000	0.000000	0.000000	0.000000	0.000000	0.000000	0.000000	0.000000	0.000000	0.000000	0.000000	0.000000	0.000000	0.000000	0.000000	0.000000	0.000000	0.000000	0.000000	0.000000
0.110000	-0.043670	-0.465280	0.332852	0.109120	0.067120	0.212463	-0.259970	0.016641	-0.129832	0.108178	0.052541	0.027437	0.146525	0.146525	1.401393	1.141832	0.000000	0.000000	0.000000	0.000000	0.000000	0.000000	0.000000	0.000000	0.000000	0.000000	0.000000	0.000000	0.000000	0.000000	0.000000	0.000000	0.000000	0.000000	0.000000	0.000000	0.000000	0.000000
0.115000	-0.043663	-0.465293	0.332853	0.109117	0.067109	0.212506	-0.259943	0.016700	-0.129835	0.108152	0.052528	0.027437	0.146525	0.146525	1.401732	1.146591	0.000000	0.000000	0.000000	0.000000	0.000000	0.000000	0.000000	0.000000	0.000000	0.000000	0.000000	0.000000	0.000000	0.000000	0.000000	0.000000	0.000000	0.000000	0.000000	0.000000	0.000000	0.000000
0.120000	-0.043655	-0.465298	0.332842	0.109113	0.067097	0.212543	-0.259907	0.016753	-0.129830	0.108128	0.052517	0.027437	0.146525	0.146525	1.402060	1.151195	0.000000	0.000000	0.000000	0.000000	0.000000	0.000000	0.000000	0.000000	0.000000	0.000000	0.000000	0.000000	0.000000	0.000000	0.000000	0.000000	0.000000	0.000000	0.000000	0.000000	0.000000	0.000000
0.125000	-0.043645	-0.465296	0.332820	0.109106	0.067084	0.212572	-0.259863	0.016798	-0.129815	0.108104	0.052508	0.027437	0.146525	0.146525	1.402378	1.155650	0.000000	0.000000	0.000000	0.000000	0.000000	0.000000	0.000000	0.000000	0.000000	0.000000	0.000000	0.000000	0.000000	0.000000	0.000000	0.000000	0.000000	0.000000	0.000000	0.000000	0.000000	0.000000
0.130000	-0.043634	-0.465286	0.332786	0.109096	0.067070	0.212593	-0.259810	0.016835	-0.129791	0.108081	0.052502	0.027437	0.146525	0.146525	1.402685	1.159960	0.000000	0.000000	0.000000	0.000000	0.000000	0.000000	0.000000	0.000000	0.000000	0.000000	0.000000	0.000000	0.000000	0.000000	0.000000	0.000000	0.000000	0.000000	0.000000	0.000000	0.000000	0.000000
0.135000	-0.043621	-0.465269	0.332740	0.109085	0.067055	0.212606	-0.259748	0.016865	-0.129758	0.108059	0.052497	0.027437	0.146525	0.146525	1.402981	1.164130	0.000000	0.000000	0.000000	0.000000	0.000000	0.000000	0.000000	0.000000	0.000000	0.000000	0.000000	0.000000	0.000000	0.000000	0.000000	0.000000	0.000000	0.000000	0.000000	0.000000	0.000000	0.000000
0.140000	-0.043607	-0.465244	0.332682	0.109070	0.067038	0.212612	-0.259677	0.016886	-0.129716	0.108038	0.052495	0.027437	0.146525	0.146525	1.403265	1.168165	0.000000	0.000000	0.000000	0.000000	0.000000	0.000000	0.000000	0.000000	0.000000	0.000000	0.000000	0.000000	0.000000	0.000000	0.000000	0.000000	0.000000	0.000000	0.000000	0.000000	0.000000	0.000000
0.145000	-0.043591	-0.465211	0.332612	0.109053	0.067021	0.212609	-0.259597	0.016899	-0.129665	0.108018	0.052494	0.027437	0.146525	0.146525	1.403538	1.172068	0.000000	0.000000	0.000000	0.000000	0.000000	0.000000	0.000000	0.000000	0.000000	0.000000	0.000000	0.000000	0.000000	0.000000	0.000000	0.000000	0.000000	0.000000	0.000000	0.000000	0.000000	0.000000
